<svg xmlns="http://www.w3.org/2000/svg" viewBox="0 0 512 512" width="512" height="512">
  <rect width="512" height="512" rx="100" fill="#0e0e0e"/>
  <!-- Larger bead grid -->
  <!-- Row 1 -->
  <circle cx="128" cy="150" r="46" fill="#e8c547"/>
  <circle cx="256" cy="150" r="46" fill="#c96b3f"/>
  <circle cx="384" cy="150" r="46" fill="#4BB8F0"/>
  <!-- Row 2 (offset) -->
  <circle cx="64"  cy="256" r="46" fill="#22AA44"/>
  <circle cx="192" cy="256" r="46" fill="#DD2020"/>
  <circle cx="320" cy="256" r="46" fill="#e8c547"/>
  <circle cx="448" cy="256" r="46" fill="#6B0AC9"/>
  <!-- Row 3 -->
  <circle cx="128" cy="362" r="46" fill="#4BB8F0"/>
  <circle cx="256" cy="362" r="46" fill="#22AA44"/>
  <circle cx="384" cy="362" r="46" fill="#c96b3f"/>
  <!-- Highlights -->
  <circle cx="112" cy="135" r="12" fill="rgba(255,255,255,0.2)"/>
  <circle cx="240" cy="135" r="12" fill="rgba(255,255,255,0.2)"/>
  <circle cx="368" cy="135" r="12" fill="rgba(255,255,255,0.2)"/>
  <!-- Holes -->
  <circle cx="128" cy="150" r="10" fill="rgba(0,0,0,0.25)"/>
  <circle cx="256" cy="150" r="10" fill="rgba(0,0,0,0.25)"/>
  <circle cx="384" cy="150" r="10" fill="rgba(0,0,0,0.25)"/>
  <circle cx="64"  cy="256" r="10" fill="rgba(0,0,0,0.25)"/>
  <circle cx="192" cy="256" r="10" fill="rgba(0,0,0,0.25)"/>
  <circle cx="320" cy="256" r="10" fill="rgba(0,0,0,0.25)"/>
  <circle cx="448" cy="256" r="10" fill="rgba(0,0,0,0.25)"/>
  <circle cx="128" cy="362" r="10" fill="rgba(0,0,0,0.25)"/>
  <circle cx="256" cy="362" r="10" fill="rgba(0,0,0,0.25)"/>
  <circle cx="384" cy="362" r="10" fill="rgba(0,0,0,0.25)"/>
</svg>
